# xmcd
#
# Track frame offsets:
#	182
#	29390
#	49190
#	62520
#	81212
#	106075
#	127422
#	149445
#	172210
#	188795
#
# Disc length: 2799 seconds
#
# Revision: 0
# Processed by: cddbd v1.4PL0 Copyright (c) Steve Scherf et al.
# Submitted via: EasyCDDAExtractor 5.0.5.1
#
DISCID=910aed0a
DTITLE=The Eagles - Greatest Hits Volume 2
DYEAR=1982
DGENRE=R&R
TTITLE0=Hotel California
TTITLE1=Heartache Tonight
TTITLE2=Seven Bridges Road
TTITLE3=Victim Of Love
TTITLE4=The Sad Cafe
TTITLE5=Life In the Fast Lane
TTITLE6=I Can't Tell You Why
TTITLE7=New Kid In Town
TTITLE8=The Long Run
TTITLE9=After The Thrill Is Gone
EXTD=
EXTT0=
EXTT1=
EXTT2=
EXTT3=
EXTT4=
EXTT5=
EXTT6=
EXTT7=
EXTT8=
EXTT9=
PLAYORDER=
